#!OML:ASF E:\motion texture\Top Level 1\Subject 1\Session 1\male.ASF
:FULLY-SPECIFIED
:DEGREES
537
root -37.7496 17.3416 1.96145 9.95171 -77.6976 -2.90139
lowerback 2.21041 -1.64364 1.77615
upperback 1.55587 -2.18454 1.53615
thorax 0.349731 -1.09554 0.619066
lowerneck -16.5488 -1.97877 -4.88746
upperneck 17.7078 -3.19031 7.66848
head 8.44264 -1.09257 3.00446
rclavicle 1.58034e-014 7.95139e-015
rhumerus 22.6891 26.2021 -75.0173
rradius 78.5414
rwrist 31.0908
rhand -29.128 -26.8977
rfingers 7.12502
rthumb -2.47537 -56.8631
lclavicle 1.58034e-014 7.95139e-015
lhumerus 9.89095 -15.9394 108.248
lradius 68.8456
lwrist 41.0565
lhand -9.36342 36.5339
lfingers 7.12502
lthumb 16.5966 65.8443
rfemur -39.2851 -10.7499 20.9238
rtibia 27.3441
rfoot 5.90696 -14.8605
rtoes 19.2469
lfemur -5.19135 -5.86439 -17.5284
ltibia 39.6823
lfoot -13.8814 -5.76138
ltoes -16.7964
538
root -37.9082 17.3431 1.94974 11.0379 -78.1 -3.90927
lowerback 2.4142 -1.70475 1.98805
upperback 1.73242 -2.26591 1.70655
thorax 0.41569 -1.13686 0.680167
lowerneck -16.6001 -1.92524 -4.80547
upperneck 17.6359 -3.11676 7.60838
head 8.42029 -1.05746 2.97824
rclavicle 2.67365e-014 -9.14409e-015
rhumerus 21.9794 26.4765 -75.6515
rradius 78.4614
rwrist 31.47
rhand -29.1309 -27.0227
rfingers 7.12502
rthumb -2.47817 -56.9881
lclavicle 2.67365e-014 -9.14409e-015
lhumerus 9.66057 -16.1734 108.479
lradius 69.2802
lwrist 41.0308
lhand -9.6749 36.4987
lfingers 7.12502
lthumb 16.2967 65.8339
rfemur -39.3519 -10.6996 21.5327
rtibia 27.9609
rfoot 5.50225 -14.3174
rtoes 19.8398
lfemur -5.9074 -5.54966 -17.2387
ltibia 41.0871
lfoot -13.1526 -5.66021
ltoes -17.2504
539
root -38.0663 17.3463 1.93871 12.24 -78.5182 -5.02835
lowerback 2.61743 -1.76129 2.20057
upperback 1.91215 -2.34158 1.87738
thorax 0.485369 -1.17539 0.741522
lowerneck -16.6473 -1.86698 -4.72099
upperneck 17.5602 -3.03646 7.54403
head 8.39547 -1.01954 2.95095
rclavicle 7.95139e-015 1.47101e-014
rhumerus 21.1981 26.7389 -76.3072
rradius 78.4135
rwrist 31.8174
rhand -29.1349 -27.1444
rfingers 7.12502
rthumb -2.48199 -57.1097
lclavicle 7.95139e-015 1.47101e-014
lhumerus 9.40303 -16.4474 108.685
lradius 69.7149
lwrist 40.9594
lhand -10.0225 36.47
lfingers 7.12502
lthumb 15.962 65.8323
rfemur -39.3913 -10.6352 22.1395
rtibia 28.5687
rfoot 5.06238 -13.784
rtoes 20.3894
lfemur -6.67271 -5.21964 -16.953
ltibia 42.4987
lfoot -12.4216 -5.53841
ltoes -17.6346
540
root -38.2238 17.351 1.92823 13.5764 -78.9523 -6.27606
lowerback 2.81914 -1.81268 2.41134
upperback 2.09417 -2.41086 2.04883
thorax 0.558562 -1.21082 0.804623
lowerneck -16.6895 -1.80408 -4.63465
upperneck 17.4804 -2.94909 7.47424
head 8.3679 -0.978851 2.92233
rclavicle -1.39149e-014 7.95139e-015
rhumerus 20.3503 26.9857 -76.9807
rradius 78.3961
rwrist 32.1258
rhand -29.1505 -27.2652
rfingers 7.12502
rthumb -2.49707 -57.2303
lclavicle -1.39149e-014 7.95139e-015
lhumerus 9.12179 -16.7594 108.866
lradius 70.1429
lwrist 40.8408
lhand -10.4001 36.4391
lfingers 7.12502
lthumb 15.5983 65.8301
rfemur -39.4033 -10.5481 22.7394
rtibia 29.1603
rfoot 4.5907 -13.2662
rtoes 20.9033
lfemur -7.48678 -4.87122 -16.6701
ltibia 43.9101
lfoot -11.6979 -5.39169
ltoes -17.9512
541
root -38.3806 17.3573 1.91837 15.056 -79.3998 -7.66108
lowerback 3.01985 -1.85938 2.61896
upperback 2.27728 -2.47436 2.21945
thorax 0.633751 -1.24346 0.868773
lowerneck -16.7252 -1.73593 -4.54792
upperneck 17.3971 -2.85423 7.40191
head 8.3376 -0.935028 2.89366
rclavicle 1.85864e-014 -3.29983e-014
rhumerus 19.441 27.2151 -77.6688
rradius 78.4082
rwrist 32.3898
rhand -29.1847 -27.3963
rfingers 7.12502
rthumb -2.5301 -57.361
lclavicle 1.85864e-014 -3.29983e-014
lhumerus 8.81943 -17.1066 109.025
lradius 70.5578
lwrist 40.6745
lhand -10.8109 36.397
lfingers 7.12502
lthumb 15.2026 65.8184
rfemur -39.3863 -10.4391 23.328
rtibia 29.7278
rfoot 4.09414 -12.7612
rtoes 21.3752
lfemur -8.34661 -4.50562 -16.394
ltibia 45.3124
lfoot -11.003 -5.21794
ltoes -18.2324
542
root -38.5366 17.3652 1.90919 16.6935 -79.8574 -9.19796
lowerback 3.21867 -1.90218 2.82298
upperback 2.46128 -2.53319 2.38851
thorax 0.711259 -1.27388 0.933476
lowerneck -16.7566 -1.66199 -4.4608
upperneck 17.3117 -2.75098 7.32621
head 8.3054 -0.887663 2.86478
rclavicle 3.97569e-016 -1.03368e-014
rhumerus 18.4738 27.4219 -78.371
rradius 78.4478
rwrist 32.6059
rhand -29.2297 -27.5263
rfingers 7.12502
rthumb -2.57352 -57.4906
lclavicle 3.97569e-016 -1.03368e-014
lhumerus 8.50172 -17.4872 109.161
lradius 70.9509
lwrist 40.4663
lhand -11.2444 36.3555
lfingers 7.12502
lthumb 14.7851 65.8081
rfemur -39.3411 -10.3107 23.9018
rtibia 30.267
rfoot 3.57622 -12.2688
rtoes 21.815
lfemur -9.24871 -4.12454 -16.127
ltibia 46.6963
lfoot -10.338 -5.01708
ltoes -18.4708
543
root -38.6918 17.3744 1.90078 18.5003 -80.3221 -10.8979
lowerback 3.4141 -1.94068 3.02173
upperback 2.64408 -2.58684 2.55474
thorax 0.789801 -1.30182 0.998295
lowerneck -16.7752 -1.58326 -4.37241
upperneck 17.2216 -2.64107 7.24695
head 8.26901 -0.837736 2.83521
rclavicle 2.46493e-014 -1.78906e-014
rhumerus 17.4532 27.6026 -79.0819
rradius 78.5121
rwrist 32.7704
rhand -29.2908 -27.6617
rfingers 7.12502
rthumb -2.63254 -57.6252
lclavicle 2.46493e-014 -1.78906e-014
lhumerus 8.16331 -17.8992 109.279
lradius 71.3211
lwrist 40.2192
lhand -11.699 36.3217
lfingers 7.12502
lthumb 14.3471 65.8059
rfemur -39.2675 -10.168 24.4582
rtibia 30.7735
rfoot 3.04486 -11.7842
rtoes 22.2077
lfemur -10.1894 -3.73107 -15.8727
ltibia 48.0533
lfoot -9.70953 -4.78895
ltoes -18.6577
544
root -38.846 17.3849 1.89311 20.5039 -80.791 -12.7888
lowerback 3.60566 -1.97525 3.21532
upperback 2.82627 -2.63586 2.71813
thorax 0.870279 -1.32757 1.06314
lowerneck -16.7862 -1.49941 -4.28248
upperneck 17.129 -2.52363 7.16209
head 8.2301 -0.784863 2.80434
rclavicle -1.11319e-014 -2.74323e-014
rhumerus 16.3868 27.7519 -79.7995
rradius 78.5975
rwrist 32.8807
rhand -29.3678 -27.7983
rfingers 7.12502
rthumb -2.7069 -57.7609
lclavicle -1.11319e-014 -2.74323e-014
lhumerus 7.81165 -18.3384 109.38
lradius 71.6609
lwrist 39.9353
lhand -12.1665 36.3024
lfingers 7.12502
lthumb 13.8965 65.8181
rfemur -39.1657 -10.0107 24.9959
rtibia 31.2426
rfoot 2.50422 -11.3104
rtoes 22.5588
lfemur -11.1652 -3.32563 -15.6313
ltibia 49.3748
lfoot -9.12361 -4.53258
ltoes -18.8011
545
root -38.9994 17.3968 1.88626 22.7132 -81.2614 -14.8797
lowerback 3.79398 -2.00645 3.40141
upperback 3.00649 -2.68095 2.87719
thorax 0.950971 -1.35149 1.12782
lowerneck -16.787 -1.40986 -4.19368
upperneck 17.0341 -2.39794 7.07464
head 8.1883 -0.728636 2.77372
rclavicle 7.7526e-015 -2.3059e-014
rhumerus 15.2784 27.8671 -80.5232
rradius 78.7007
rwrist 32.9396
rhand -29.4665 -27.9434
rfingers 7.12502
rthumb -2.80225 -57.9047
lclavicle 7.7526e-015 -2.3059e-014
lhumerus 7.44904 -18.8005 109.466
lradius 71.9652
lwrist 39.6223
lhand -12.6443 36.2945
lfingers 7.12502
lthumb 13.4361 65.8412
rfemur -39.0362 -9.8429 25.5103
rtibia 31.6736
rfoot 1.95544 -10.848
rtoes 22.8732
lfemur -12.1711 -2.91106 -15.4078
ltibia 50.651
lfoot -8.58684 -4.24743
ltoes -18.911
546
root -39.1519 17.4098 1.88026 25.165 -81.7302 -17.2072
lowerback 3.97776 -2.03449 3.58111
upperback 3.18443 -2.72242 3.03164
thorax 1.03222 -1.37372 1.19138
lowerneck -16.7837 -1.31489 -4.10389
upperneck 16.9413 -2.26438 6.98164
head 8.14618 -0.669217 2.742
rclavicle -1.33186e-014 1.82882e-014
rhumerus 14.1347 27.945 -81.25
rradius 78.8199
rwrist 32.9501
rhand -29.5919 -28.1059
rfingers 7.12502
rthumb -2.92337 -58.0656
lclavicle -1.33186e-014 1.82882e-014
lhumerus 7.07783 -19.2823 109.539
lradius 72.2315
lwrist 39.2842
lhand -13.129 36.2985
lfingers 7.12502
lthumb 12.9689 65.8755
rfemur -38.881 -9.66593 26.0018
rtibia 32.0651
rfoot 1.39893 -10.4002
rtoes 23.1598
lfemur -13.2029 -2.48866 -15.2019
ltibia 51.8729
lfoot -8.10401 -3.93364
ltoes -18.9899
547
root -39.3033 17.4239 1.87511 27.8883 -82.1939 -19.7994
lowerback 4.15469 -2.0592 3.75249
upperback 3.35936 -2.76018 3.18119
thorax 1.11465 -1.39422 1.25447
lowerneck -16.7708 -1.21493 -4.01579
upperneck 16.8468 -2.12328 6.88533
head 8.10162 -0.606825 2.71025
rclavicle -1.03368e-014 4.05521e-014
rhumerus 12.9618 27.979 -81.9789
rradius 78.9505
rwrist 32.9153
rhand -29.748 -28.2886
rfingers 7.12502
rthumb -3.07411 -58.2462
lclavicle -1.03368e-014 4.05521e-014
lhumerus 6.69877 -19.7804 109.602
lradius 72.4586
lwrist 38.928
lhand -13.615 36.3157
lfingers 7.12502
lthumb 12.5003 65.9218
rfemur -38.7032 -9.48109 26.4682
rtibia 32.4168
rfoot 0.841005 -9.9702
rtoes 23.3932
lfemur -14.2593 -2.06139 -15.0152
ltibia 53.0338
lfoot -7.67898 -3.59132
ltoes -19.0359
548
root -39.4536 17.4389 1.87082 30.9256 -82.6494 -22.6996
lowerback 4.32563 -2.08084 3.91604
upperback 3.53042 -2.79441 3.32516
thorax 1.19681 -1.41307 1.31615
lowerneck -16.75 -1.1093 -3.92597
upperneck 16.7532 -1.97391 6.78186
head 8.0557 -0.541213 2.67674
rclavicle 1.39149e-014 -9.54166e-015
rhumerus 11.7669 27.9657 -82.7072
rradius 79.0905
rwrist 32.835
rhand -29.9394 -28.4919
rfingers 7.12502
rthumb -3.25891 -58.4467
lclavicle 1.39149e-014 -9.54166e-015
lhumerus 6.31733 -20.2926 109.655
lradius 72.6413
lwrist 38.5675
lhand -14.0971 36.3428
lfingers 7.12502
lthumb 12.0355 65.9768
rfemur -38.5042 -9.28899 26.9086
rtibia 32.7293
rfoot 0.287752 -9.5614
rtoes 23.5286
lfemur -15.3359 -1.63108 -14.8483
ltibia 54.1261
lfoot -7.31501 -3.22092
ltoes -19.0643
549
root -39.6029 17.4548 1.86748 34.3106 -83.0909 -25.9414
lowerback 4.48583 -2.10015 4.07399
upperback 3.69999 -2.82648 3.46161
thorax 1.2836 -1.43081 1.37298
lowerneck -16.7249 -0.998267 -3.83455
upperneck 16.6599 -1.81702 6.67405
head 8.00897 -0.472373 2.64231
rclavicle 1.68967e-014 -7.15625e-015
rhumerus 10.5602 27.8971 -83.4351
rradius 79.2382
rwrist 32.7136
rhand -30.1588 -28.7183
rfingers 7.12502
rthumb -3.47083 -58.6698
lclavicle 1.68967e-014 -7.15625e-015
lhumerus 5.93692 -20.8161 109.697
lradius 72.7795
lwrist 38.2085
lhand -14.5728 36.3842
lfingers 7.12502
lthumb 11.5768 66.0444
rfemur -38.2853 -9.09462 27.3214
rtibia 33.0017
rfoot -0.257996 -9.18046
rtoes 23.5993
lfemur -16.4284 -1.20234 -14.7025
ltibia 55.142
lfoot -7.0117 -2.82489
ltoes -19.065
